<svg xmlns="http://www.w3.org/2000/svg" viewBox="0 0 32 32"><title>Artboard-12</title><g id="Bedroom"><path d="M29.5,6H26.707L24.85,4.143a1.5,1.5,0,1,0-2.7,0L20.293,6H17.5a.5.5,0,0,0-.5.5v8a.5.5,0,0,0,.5.5h12a.5.5,0,0,0,.5-.5v-8A.5.5,0,0,0,29.5,6Zm-6-3a.5.5,0,1,1-.5.5A.5.5,0,0,1,23.5,3Zm-.643,1.85a1.453,1.453,0,0,0,1.286,0L25.293,6H21.707ZM29,7v3.293L27.854,9.146a.5.5,0,0,0-.708,0L24.5,11.793,21.854,9.146a.5.5,0,0,0-.708,0L18,12.293V7ZM18,13.707l3.5-3.5L25.293,14H18ZM26.707,14l-1.5-1.5L27.5,10.207l1.5,1.5V14Z"/><circle cx="24.5" cy="8.5" r="0.5"/><path d="M29.5,29H28V21.5A4.505,4.505,0,0,0,23.5,17H10V14.5A2.5,2.5,0,0,0,7.5,12H7V9.5A.5.5,0,0,0,6.5,9h-2a.5.5,0,0,0-.5.5V29H2.5a.5.5,0,0,0,0,1h27a.5.5,0,0,0,0-1ZM27,21.5V25H7V18H23.5A3.5,3.5,0,0,1,27,21.5ZM7,26H25v3H7Zm.5-13A1.5,1.5,0,0,1,9,14.5V17H7V13ZM5,29V10H6V29Zm21,0V26h1v3Z"/></g></svg>