<svg id="Layer_1" data-name="Layer 1" xmlns="http://www.w3.org/2000/svg" viewBox="0 0 48 48"><defs><style>.cls-1{fill:none;stroke:#000;stroke-linecap:round;stroke-linejoin:round;stroke-width:2px;}</style></defs><title>door</title><rect class="cls-1" x="10" y="4" width="28" height="40"/><ellipse class="cls-1" cx="12.5" cy="24" rx="0.5" ry="1"/><polygon class="cls-1" points="22 9 22 19 20 19 20 22 15 22 15 9 22 9"/><polygon class="cls-1" points="33 9 33 22 28 22 28 19 26 19 26 9 33 9"/><polygon class="cls-1" points="22 29 22 39 15 39 15 26 20 26 20 29 22 29"/><polygon class="cls-1" points="33 26 33 39 26 39 26 29 28 29 28 26 33 26"/><rect class="cls-1" x="23" y="23" width="2" height="2"/><rect class="cls-1" x="-214" y="-486" width="680" height="680"/></svg>