<svg xmlns="http://www.w3.org/2000/svg" viewBox="0 0 32 32"><title>Artboard-25</title><g id="WC"><path d="M29.5,29H13.838l-1.6-4H12.5A4.505,4.505,0,0,0,17,20.5a.5.5,0,0,0-.5-.5H5V13.5A2.5,2.5,0,0,0,2.5,11a.5.5,0,0,0-.5.5v9a.5.5,0,0,0,.5.5H6v8H2.5a.5.5,0,0,0,0,1h27a.5.5,0,0,0,0-1ZM3,12.086A1.5,1.5,0,0,1,4,13.5V20H3ZM7,29V21h8.965A3.507,3.507,0,0,1,12.5,24h-1a.5.5,0,0,0-.464.686L12.762,29Z"/><path d="M6.5,19h10a.5.5,0,0,0,0-1H6.5a.5.5,0,0,0,0,1Z"/><path d="M19.04,11.483C19.322,15.248,21.405,19,24.5,19c3.24,0,5.835-4.358,5.463-9.458,0-.008,0-.016,0-.025C29.627,5.072,27.167,2,24.5,2c-3.24,0-5.835,4.358-5.463,9.458C19.037,11.466,19.04,11.474,19.04,11.483ZM27.2,4.51c.086.108.169.218.25.336l-7.33,7.33c-.024-.174-.042-.35-.059-.527Zm1.235,2.351-7.707,7.707a9.858,9.858,0,0,1-.382-1.2l7.629-7.629A8.883,8.883,0,0,1,28.432,6.861Zm.51,2.49L21.8,16.49a6.571,6.571,0,0,1-.629-.957l7.558-7.558A11.878,11.878,0,0,1,28.942,9.351ZM24.5,18a3.126,3.126,0,0,1-2-.792l6.5-6.494C28.925,14.75,26.938,18,24.5,18Zm0-15a3.126,3.126,0,0,1,2,.792l-6.5,6.494C20.075,6.25,22.062,3,24.5,3Z"/></g></svg>